<?xml version="1.0" encoding="utf-8"?>
<!-- Generator: Adobe Illustrator 21.0.0, SVG Export Plug-In . SVG Version: 6.00 Build 0)  -->
<svg version="1.1" id="圖層_1" xmlns="http://www.w3.org/2000/svg" xmlns:xlink="http://www.w3.org/1999/xlink" x="0px" y="0px"
	 viewBox="0 0 89.9 56.8" style="enable-background:new 0 0 89.9 56.8;" xml:space="preserve">
<style type="text/css">
	.st0{opacity:0.2;}
	.st1{fill:#F26529;}
</style>
<g class="st0">
	<g>
		<g>
			<path class="st1" d="M75.1,45c-1.6,0-2.9,1.3-2.9,2.9s1.3,2.9,2.9,2.9s2.9-1.3,2.9-2.9S76.7,45,75.1,45z"/>
		</g>
	</g>
	<g>
		<g>
			<path class="st1" d="M83.7,24.1l-2.3-9.3c0.6-0.1,1.1-0.7,1.1-1.4v-1.5c0-3.3-2.7-5.9-5.9-5.9H66V2.9C66,1.3,64.7,0,63.1,0H8.9
				C7.3,0,6,1.3,6,2.9v25.5c0,0.8,0.6,1.4,1.4,1.4c0.8,0,1.4-0.6,1.4-1.4V2.8c0-0.1,0-0.1,0.1-0.1H63c0.1,0,0.1,0,0.1,0.1v25.6
				c0,0.8,0.6,1.4,1.4,1.4s1.4-0.6,1.4-1.4v-1.6h16.6l0,0l0,0c2,0,3.8,1.3,4.4,3.2h-4.4c-0.8,0-1.4,0.6-1.4,1.4v3
				c0,2.4,2,4.4,4.4,4.4h1.6V45h-3.7c-1.2-3.5-4.5-6-8.4-6s-7.2,2.5-8.4,6h-0.7V34.4c0-0.8-0.6-1.4-1.4-1.4s-1.4,0.6-1.4,1.4V45
				H33.9c-1.2-3.5-4.5-6-8.4-6s-7.2,2.5-8.4,6H9c-0.1,0-0.1,0-0.1-0.1v-3.1H15c0.8,0,1.4-0.6,1.4-1.4S15.8,39,15,39H1.4
				C0.6,39,0,39.6,0,40.4s0.6,1.4,1.4,1.4H6v3.1c0,1.6,1.3,2.9,2.9,2.9h7.6v0.1c0,4.9,4,8.9,8.9,8.9s8.9-4,8.9-8.9v-0.1h31.8v0.1
				c0,4.9,4,8.9,8.9,8.9s8.9-4,8.9-8.9v-0.1h4.6c0.8,0,1.4-0.6,1.4-1.4v-15C90,27.7,87.3,24.6,83.7,24.1z M66,8.8h10.6
				c1.7,0,3.1,1.4,3.1,3.1V12H66V8.8z M66,24v-9.2h12.5l2.3,9.2H66L66,24z M25.5,54c-3.4,0-6.1-2.7-6.1-6.1s2.7-6.1,6.1-6.1
				s6.1,2.7,6.1,6.1S28.8,54,25.5,54z M75.1,54c-3.4,0-6.1-2.7-6.1-6.1s2.7-6.1,6.1-6.1s6.1,2.7,6.1,6.1S78.4,54,75.1,54z M87.2,36
				h-1.6c-0.9,0-1.6-0.7-1.6-1.6v-1.6h3.2V36L87.2,36z"/>
		</g>
	</g>
	<g>
		<g>
			<path class="st1" d="M25.5,45c-1.6,0-2.9,1.3-2.9,2.9s1.3,2.9,2.9,2.9c1.6,0,2.9-1.3,2.9-2.9S27.1,45,25.5,45z"/>
		</g>
	</g>
	<g>
		<g>
			<path class="st1" d="M58.5,39h-21c-0.8,0-1.4,0.6-1.4,1.4s0.6,1.4,1.4,1.4h21c0.8,0,1.4-0.6,1.4-1.4S59.3,39,58.5,39z"/>
		</g>
	</g>
	<g>
		<g>
			<path class="st1" d="M22.5,33h-18c-0.8,0-1.4,0.6-1.4,1.4s0.6,1.4,1.4,1.4h18c0.8,0,1.4-0.6,1.4-1.4S23.2,33,22.5,33z"/>
		</g>
	</g>
	<g>
		<g>
			<path class="st1" d="M49,13.9c-0.6-0.6-1.4-0.6-2,0L34.5,26.4L28,19.9c-0.6-0.6-1.4-0.6-2,0s-0.6,1.4,0,2l7.5,7.5
				c0.3,0.3,0.6,0.4,1,0.4s0.7-0.1,1-0.4L49,15.9C49.6,15.3,49.6,14.4,49,13.9z"/>
		</g>
	</g>
</g>
</svg>
