<?xml version="1.0" encoding="utf-8"?>
<!-- Generator: Adobe Illustrator 21.0.0, SVG Export Plug-In . SVG Version: 6.00 Build 0)  -->
<svg version="1.1" id="圖層_1" xmlns="http://www.w3.org/2000/svg" xmlns:xlink="http://www.w3.org/1999/xlink" x="0px" y="0px"
	 viewBox="0 0 150 150" style="enable-background:new 0 0 150 150;" xml:space="preserve">
<style type="text/css">
	.st0{fill:#F26529;}
	.st1{fill:#FFFFFF;}
</style>
<g>
	<circle class="st0" cx="75" cy="75" r="75"/>
</g>
<g>
	<path class="st1" d="M39,90.5c-4.6,0-8.4,3.7-8.4,8.4c0,4.6,3.7,8.4,8.4,8.4s8.4-3.7,8.4-8.4C47.4,94.2,43.6,90.5,39,90.5z M39,103
		c-2.3,0-4.2-1.9-4.2-4.2c0-2.3,1.9-4.2,4.2-4.2s4.2,1.9,4.2,4.2C43.2,101.1,41.3,103,39,103z M103.3,82.4l-11.4,7
		c-0.2-0.5-0.3-1-0.3-1.6V76.8c0-0.5,0.1-1,0.3-1.4L103.3,82.4z M93.3,73.5c0.6-0.4,1.4-0.7,2.3-0.7H116c0.7,0,1.4,0.2,2,0.5
		L105.5,81L93.3,73.5z M107.7,82.4l11.9-7.3c0.3,0.5,0.4,1.1,0.4,1.7v11.1c0,0.7-0.2,1.3-0.5,1.9L107.7,82.4z M89.6,93.9h21.3v4.3
		H90.4c-0.2-3.5-2.2-6.6-5.1-8.3v0c0,0,0,0,0.1,0l-0.1-0.1V47.1h4.3V93.9L89.6,93.9z M117.8,91.4c-0.6,0.3-1.2,0.5-1.8,0.5H95.6
		c-0.8,0-1.5-0.2-2.1-0.6l12-7.5L117.8,91.4z M103.3,61l-11.4,7c-0.2-0.5-0.3-1-0.3-1.6V55.4c0-0.5,0.1-1,0.3-1.4L103.3,61z
		 M93.3,52.1c0.6-0.4,1.4-0.7,2.3-0.7H116c0.7,0,1.4,0.2,2,0.5l-12.5,7.7L93.3,52.1z M107.7,61l11.9-7.3c0.3,0.5,0.4,1.1,0.4,1.7
		v11.1c0,0.7-0.2,1.3-0.5,1.9L107.7,61z M117.8,70c-0.6,0.3-1.2,0.5-1.8,0.5H95.6c-0.8,0-1.5-0.2-2.1-0.6l12-7.5L117.8,70z
		 M63.3,46.3c-1.1-2.1-3.3-3.5-5.7-3.5H43.8c-2.3,0-4.3,1.9-4.3,4.3v22.3h-4.3c-2.9,0-5.3,2.4-5.3,5.3v18.7c1.8-3.1,5.2-5.1,9-5.1
		c5.5,0,10.1,4.3,10.5,9.8h20.1c0.4-5.5,4.9-9.8,10.5-9.8c1.9,0,3.8,0.5,5.3,1.5v-0.1L63.3,46.3z M71.3,78H47.3
		c-0.6,0-1.1-0.5-1.1-1.1V50.5c0-0.6,0.5-1.1,1.1-1.1h10.5c0.4,0,0.8,0.2,0.9,0.6l13.6,26.4C72.7,77.1,72.1,78,71.3,78z M80,90.5
		c-4.6,0-8.4,3.7-8.4,8.4c0,4.6,3.7,8.4,8.4,8.4c4.6,0,8.4-3.7,8.4-8.4C88.3,94.2,84.6,90.5,80,90.5z M80,103
		c-2.3,0-4.2-1.9-4.2-4.2c0-2.3,1.9-4.2,4.2-4.2s4.2,1.9,4.2,4.2C84.2,101.1,82.3,103,80,103z"/>
</g>
</svg>
