<?xml version="1.0" encoding="utf-8"?>
<!-- Generator: Adobe Illustrator 21.0.0, SVG Export Plug-In . SVG Version: 6.00 Build 0)  -->
<svg version="1.1" id="圖層_1" xmlns="http://www.w3.org/2000/svg" xmlns:xlink="http://www.w3.org/1999/xlink" x="0px" y="0px"
	 viewBox="0 0 150 150" style="enable-background:new 0 0 150 150;" xml:space="preserve">
<style type="text/css">
	.st0{fill:#EC681E;}
	.st1{fill:#FFFFFF;}
</style>
<g>
	<circle class="st0" cx="75" cy="75" r="75"/>
</g>
<g>
	<g>
		<g>
			<rect x="35" y="101.8" class="st1" width="80" height="4.8"/>
		</g>
	</g>
	<g>
		<g>
			<g>
				<path class="st1" d="M112.8,86.5c0.9-3.2,0.4-6.5-1.2-9.4c-1.7-2.9-4.3-4.9-7.5-5.8l-26.2-7l-6-18l-10.8-2.9l-1.1,16L53,57.6
					l-1.2-9.3l-9.2-2.5l-2.2,8.4l-3.6,13.6l24.5,17.7l36.3,9.7C104.2,97,111,93.1,112.8,86.5z M65.4,49.5l2.8,0.7l7.5,22.6L64,69.7
					l0.6-8.9l0,0L65.4,49.5z M45,55.5l1-3.8l1.6,0.4l0.5,4.2L47,56L45,55.5z M98.8,90.7l-35.5-9.5L42.2,65.9l1.6-5.8l9.9,2.7v0
					l5.9,1.6l-0.6,8.9L83,79.7l-3.3-10l23.1,6.2c2,0.5,3.6,1.8,4.7,3.6c1,1.8,1.3,3.8,0.8,5.8C107.1,89.3,102.9,91.8,98.8,90.7z"/>
			</g>
		</g>
		<g>
			<g>
				
					<rect x="86.6" y="76.3" transform="matrix(0.2588 -0.9659 0.9659 0.2588 -10.1963 144.3771)" class="st1" width="4.8" height="5.1"/>
			</g>
		</g>
		<g>
			<g>
				
					<rect x="95.2" y="78.6" transform="matrix(0.2588 -0.9659 0.9659 0.2588 -6.063 154.3565)" class="st1" width="4.8" height="5.1"/>
			</g>
		</g>
	</g>
</g>
</svg>
