<?xml version="1.0" encoding="utf-8"?>
<!-- Generator: Adobe Illustrator 21.0.0, SVG Export Plug-In . SVG Version: 6.00 Build 0)  -->
<svg version="1.1" id="Capa_1" xmlns="http://www.w3.org/2000/svg" xmlns:xlink="http://www.w3.org/1999/xlink" x="0px" y="0px"
	 viewBox="0 0 30 30" style="enable-background:new 0 0 30 30;" xml:space="preserve">
<style type="text/css">
	.st0{fill:#FFFFFF;}
</style>
<g>
	<g>
		<g>
			<path class="st0" d="M19,0.1c-0.3-0.2-0.6-0.2-0.9,0l-0.6,0.4C12.7,3.4,6.7,3.4,2,0.5L1.3,0.1C1.1,0,0.7,0,0.4,0.1
				C0.2,0.3,0,0.6,0,0.9v12.5c0,5.4,3.9,10.1,9.2,11.2c0.1,0,0.4,0.1,0.5,0.1s0.4-0.1,0.5-0.1l0,0c5.3-1.1,9.2-5.8,9.2-11.3V0.9
				C19.5,0.6,19.3,0.3,19,0.1z M3.8,11.1c-0.3-0.3-0.3-0.9,0-1.2c1.3-1.3,3.4-1.3,4.8,0c0.3,0.3,0.3,0.9,0,1.2s-0.9,0.3-1.2,0
				c-0.6-0.6-1.6-0.6-2.3,0C4.7,11.4,4.2,11.4,3.8,11.1z M13.8,16.7c-0.7,1.6-2.3,2.7-4.1,2.7s-3.4-1.1-4-2.7c-0.2-0.4,0-1,0.5-1.2
				c0.4-0.2,1,0,1.2,0.5c0.4,1,1.4,1.6,2.4,1.6s2.1-0.6,2.5-1.6c0.2-0.4,0.7-0.7,1.2-0.5C13.8,15.7,14,16.3,13.8,16.7z M15.7,11.1
				c-0.3,0.3-0.9,0.3-1.2,0c-0.6-0.6-1.6-0.6-2.3,0c-0.3,0.3-0.9,0.3-1.2,0s-0.3-0.9,0-1.2c1.3-1.3,3.4-1.3,4.8,0
				C16,10.2,16,10.7,15.7,11.1z"/>
		</g>
	</g>
	<g>
		<g>
			<path class="st0" d="M29.6,5.4c-0.3-0.2-0.6-0.2-0.9,0L28,5.8c-2.1,1.2-4.4,2-6.8,2.1v5.3c0,2.1-0.5,4.1-1.3,5.8
				c0.2,0,0.3-0.1,0.5-0.1c1.8,0,3.4,1.1,4,2.7c0.2,0.4,0,1-0.5,1.2c-0.4,0.2-1,0-1.2-0.5c-0.4-1-1.4-1.6-2.4-1.6s-2,0.6-2.4,1.6
				c-0.1,0.3-0.5,0.5-0.9,0.5c-1.2,1.1-2.5,2.1-4,2.7c1.7,2.2,4.1,3.8,6.8,4.3c0.1,0,0.4,0.1,0.5,0.1s0.3-0.1,0.5-0.1
				C26.1,28.7,30,24,30,18.4V6.2C30,5.9,29.8,5.6,29.6,5.4z M28,13.9c-0.7,0.7-1.5,1-2.4,1s-1.7-0.3-2.4-1c-0.3-0.3-0.3-0.9,0-1.2
				s0.9-0.3,1.2,0c0.6,0.6,1.6,0.6,2.3,0c0.3-0.3,0.9-0.3,1.2,0C28.3,13,28.3,13.5,28,13.9z"/>
		</g>
	</g>
</g>
</svg>
