<?xml version="1.0" encoding="utf-8"?>
<!-- Generator: Adobe Illustrator 21.0.0, SVG Export Plug-In . SVG Version: 6.00 Build 0)  -->
<svg version="1.1" id="圖層_1" xmlns="http://www.w3.org/2000/svg" xmlns:xlink="http://www.w3.org/1999/xlink" x="0px" y="0px"
	 viewBox="0 0 150 150" style="enable-background:new 0 0 150 150;" xml:space="preserve">
<style type="text/css">
	.st0{fill:#EC681E;}
	.st1{fill:#FFFFFF;}
</style>
<g>
	<circle class="st0" cx="75" cy="75" r="75"/>
</g>
<g>
	<path class="st1" d="M47,87c-3.6,0-6.5,2.9-6.5,6.5c0,3.6,2.9,6.5,6.5,6.5c3.6,0,6.5-2.9,6.5-6.5C53.5,89.9,50.6,87,47,87z
		 M47,96.8c-1.8,0-3.2-1.5-3.2-3.2c0-1.8,1.5-3.2,3.2-3.2s3.2,1.5,3.2,3.2S48.8,96.8,47,96.8z M97,80.7l-8.8,5.5
		c-0.2-0.4-0.3-0.8-0.3-1.2v-8.6c0-0.4,0.1-0.8,0.2-1.1L97,80.7z M89.3,73.8c0.5-0.3,1.1-0.6,1.8-0.6h15.9c0.6,0,1.1,0.2,1.5,0.4
		l-9.7,6L89.3,73.8z M100.5,80.7l9.2-5.7c0.2,0.4,0.3,0.9,0.3,1.3V85c0,0.5-0.1,1-0.4,1.4L100.5,80.7z M86.3,89.7h16.5V93H87
		c-0.2-2.8-1.7-5.1-4-6.5v0c0,0,0,0,0,0l0-0.1V53.3h3.3V89.7L86.3,89.7z M108.3,87.7c-0.4,0.2-0.9,0.4-1.4,0.4H91
		c-0.6,0-1.2-0.2-1.7-0.5l9.4-5.8L108.3,87.7z M97,64.1l-8.8,5.5c-0.2-0.4-0.3-0.8-0.3-1.2v-8.6c0-0.4,0.1-0.8,0.2-1.1L97,64.1z
		 M89.3,57.2c0.5-0.3,1.1-0.6,1.8-0.6h15.9c0.6,0,1.1,0.2,1.5,0.4l-9.7,6L89.3,57.2z M100.5,64.1l9.2-5.7c0.2,0.4,0.3,0.9,0.3,1.3
		v8.6c0,0.5-0.1,1-0.4,1.4L100.5,64.1z M108.3,71.1c-0.4,0.2-0.9,0.4-1.4,0.4H91c-0.6,0-1.2-0.2-1.7-0.5l9.4-5.8L108.3,71.1z
		 M65.9,52.7C65,51,63.3,50,61.5,50H50.8c-1.8,0-3.3,1.5-3.3,3.3v17.4h-3.3c-2.3,0-4.1,1.9-4.1,4.1v14.6c1.4-2.4,4-4,7-4
		c4.3,0,7.8,3.4,8.1,7.6h15.6c0.3-4.2,3.8-7.6,8.1-7.6c1.5,0,2.9,0.4,4.1,1.1v-0.1L65.9,52.7z M72.2,77.3H53.4
		c-0.5,0-0.8-0.4-0.8-0.8V55.9c0-0.5,0.4-0.8,0.8-0.8h8.1c0.3,0,0.6,0.2,0.7,0.4l10.6,20.6C73.2,76.6,72.8,77.3,72.2,77.3z M78.9,87
		c-3.6,0-6.5,2.9-6.5,6.5c0,3.6,2.9,6.5,6.5,6.5c3.6,0,6.5-2.9,6.5-6.5C85.4,89.9,82.5,87,78.9,87z M78.9,96.8
		c-1.8,0-3.2-1.5-3.2-3.2c0-1.8,1.5-3.2,3.2-3.2s3.2,1.5,3.2,3.2S80.7,96.8,78.9,96.8z"/>
</g>
</svg>
