<?xml version="1.0" encoding="utf-8"?>
<!-- Generator: Adobe Illustrator 21.0.0, SVG Export Plug-In . SVG Version: 6.00 Build 0)  -->
<svg version="1.1" id="圖層_1" xmlns="http://www.w3.org/2000/svg" xmlns:xlink="http://www.w3.org/1999/xlink" x="0px" y="0px"
	 viewBox="0 0 18 18" style="enable-background:new 0 0 18 18;" xml:space="preserve">
<style type="text/css">
	.st0{fill:#FFFFFF;}
</style>
<g>
	<path class="st0" d="M12.5,6.3c-1.7,0.1-3.1,0.6-4.3,1.7C7,9.2,6.5,10.7,6.6,12.4c-0.7-0.1-1.2-0.2-1.8-0.2c-0.2,0-0.5,0-0.6,0.1
		C3.6,12.6,3,13,2.3,13.4c0.1-0.5,0.2-1,0.3-1.5c0.1-0.3,0.1-0.5-0.3-0.7c-2-1.4-2.9-3.5-2.2-5.7c0.6-2,2-3.2,4-3.9
		c2.7-0.9,5.7,0,7.3,2.1C12.1,4.5,12.4,5.3,12.5,6.3L12.5,6.3z M4.8,5.7c0-0.4-0.3-0.8-0.7-0.8c-0.4,0-0.8,0.3-0.8,0.7
		C3.3,6,3.6,6.4,4,6.4C4.4,6.4,4.8,6.1,4.8,5.7L4.8,5.7z M8.8,4.9c-0.4,0-0.8,0.4-0.8,0.8c0,0.4,0.3,0.7,0.8,0.7
		c0.4,0,0.7-0.3,0.7-0.8C9.6,5.2,9.2,4.9,8.8,4.9z"/>
	<path class="st0" d="M16.3,16.8c-0.5-0.2-1-0.6-1.5-0.6c-0.5-0.1-1.1,0.2-1.6,0.3c-1.6,0.2-3.1-0.3-4.3-1.4c-2.3-2.1-2-5.4,0.7-7.1
		c2.4-1.6,5.8-1,7.5,1.1c1.5,1.9,1.3,4.4-0.5,6c-0.5,0.5-0.7,0.8-0.4,1.4C16.2,16.5,16.2,16.6,16.3,16.8L16.3,16.8z M10.2,10.9
		c0.3,0,0.6-0.3,0.6-0.6c0-0.4-0.3-0.6-0.6-0.6c-0.3,0-0.6,0.3-0.6,0.6C9.6,10.7,9.9,10.9,10.2,10.9L10.2,10.9z M14.1,9.7
		c-0.3,0-0.6,0.3-0.6,0.6c0,0.4,0.3,0.6,0.6,0.6c0.3,0,0.6-0.3,0.6-0.6C14.7,10,14.5,9.7,14.1,9.7z"/>
</g>
</svg>
