<?xml version="1.0" encoding="utf-8"?>
<!-- Generator: Adobe Illustrator 21.0.0, SVG Export Plug-In . SVG Version: 6.00 Build 0)  -->
<svg version="1.1" id="圖層_1" xmlns="http://www.w3.org/2000/svg" xmlns:xlink="http://www.w3.org/1999/xlink" x="0px" y="0px"
	 viewBox="0 0 85.9 89.9" style="enable-background:new 0 0 85.9 89.9;" xml:space="preserve">
<style type="text/css">
	.st0{opacity:0.2;}
	.st1{fill:#F26529;}
</style>
<g class="st0">
	<path class="st1" d="M85.9,83.8V79c0-4.9-2.3-9.6-6.1-12.5c-8.9-6.9-17.9-11.7-21.1-13.3v-5.5c0.6-1.4,1.2-3,1.6-4.7
		c2.4-0.8,3.6-4.3,4.5-7.4c1.2-4.1,1-6.9-0.3-8.5c1.4-7.8,0.8-13.6-1.9-17.1c-1.4-1.9-3.1-2.7-4.2-3c-0.8-1.1-2.4-3-5.1-4.5
		C50.5,0.8,47.4,0,43.9,0c-0.6,0-1.3,0-1.8,0.1C40.6,0.2,39,0.5,37.5,1c0,0,0,0-0.1,0c-1.7,0.6-3.3,1.4-4.8,2.5
		c-1.8,1.1-3.4,2.5-4.8,4c-2.8,2.9-4.6,6.1-5.4,9.5c-0.8,2.9-0.8,5.7-0.2,8.5c-0.3,0.2-0.6,0.5-0.9,0.8C20,28,20,30.6,21.1,34.6
		c0.8,2.8,1.8,5.6,3.6,6.8c0.5,2.7,1.4,5.1,2.5,7.2V53C24,54.6,15,59.4,6.1,66.3C2.3,69.3,0,73.9,0,78.8v4.8c0,3.5,2.8,6.3,6.3,6.3
		h73.4C83.1,90.1,85.9,87.3,85.9,83.8z M4.6,83.8V79c0-3.5,1.6-6.8,4.3-9c9.6-7.4,19.3-12.3,21.2-13.2c1-0.5,1.7-1.5,1.7-2.7v-6
		c0-0.4-0.1-0.8-0.3-1.1c-1.2-2.1-2.1-4.5-2.5-7.3c-0.1-0.9-0.8-1.6-1.7-1.8c-0.2-0.3-0.9-1.3-1.8-4.3c-0.7-2.5-0.7-3.7-0.6-4.1
		c0.7,0,1.4-0.3,1.9-0.9c0.5-0.6,0.6-1.4,0.3-2.1c-1-2.7-1.1-5.4-0.3-8.2c0.6-2.7,2.1-5.2,4.3-7.5c1.2-1.3,2.6-2.4,4-3.4
		c0,0,0.1,0,0.1-0.1c1.2-0.9,2.5-1.5,3.8-2l0,0c1.1-0.4,2.2-0.6,3.4-0.6c3.2-0.3,6.1,0.3,8.7,1.8c2.8,1.6,3.9,3.6,3.9,3.6
		c0.3,0.7,1,1.1,1.8,1.2c0.1,0,1.3,0.2,2.3,1.6c1.1,1.5,2.6,5.5,0.7,14.8c-0.2,1,0.3,2.1,1.3,2.5c0.1,0.3,0.2,1.5-0.6,4.3
		c-0.7,2.5-1.3,3.6-1.6,4.1c-0.4-0.1-0.9,0-1.3,0.1c-0.7,0.3-1.2,0.9-1.3,1.7c-0.4,2.2-1,4.2-1.8,5.9c-0.1,0.3-0.2,0.6-0.2,1v6.9
		c0,1.2,0.6,2.2,1.7,2.7c1.9,0.9,11.6,5.8,21.2,13.2c2.7,2.1,4.3,5.5,4.3,9v4.8c0,1-0.8,1.7-1.7,1.7H6.3C5.3,85.6,4.6,84.8,4.6,83.8
		z"/>
</g>
</svg>
