<?xml version="1.0" encoding="utf-8"?>
<!-- Generator: Adobe Illustrator 21.0.0, SVG Export Plug-In . SVG Version: 6.00 Build 0)  -->
<svg version="1.1" id="圖層_1" xmlns="http://www.w3.org/2000/svg" xmlns:xlink="http://www.w3.org/1999/xlink" x="0px" y="0px"
	 viewBox="0 0 150 150" style="enable-background:new 0 0 150 150;" xml:space="preserve">
<style type="text/css">
	.st0{fill:#F26529;}
	.st1{fill:#FFFFFF;}
</style>
<g>
	<circle class="st0" cx="75" cy="75" r="75"/>
</g>
<g>
	<path class="st1" d="M56.7,86.8c-4.4,0-7.9,3.6-7.9,7.9c0,4.4,3.6,7.9,7.9,7.9c4.4,0,7.9-3.6,7.9-7.9C64.6,90.4,61,86.8,56.7,86.8z
		 M56.7,98.7c-2.2,0-4-1.8-4-4c0-2.2,1.8-4,4-4c2.2,0,4,1.8,4,4C60.6,96.9,58.8,98.7,56.7,98.7z M49.8,86.8H32.1
		c-0.7,0-1.3,0.6-1.3,1.3v3.9c0,0.7,0.6,1.3,1.3,1.3h14.2C46.7,90.7,48,88.4,49.8,86.8z M98.1,86.8c-4.4,0-7.9,3.6-7.9,7.9
		c0,4.4,3.6,7.9,7.9,7.9c4.4,0,7.9-3.6,7.9-7.9C106,90.4,102.5,86.8,98.1,86.8z M98.1,98.7c-2.2,0-4-1.8-4-4c0-2.2,1.8-4,4-4
		c2.2,0,4,1.8,4,4C102,96.9,100.3,98.7,98.1,98.7z M118.7,86.8h-3.1V69.5c0-2-0.6-4-1.7-5.7l-7.8-11.5c-1.9-2.8-5.1-4.5-8.4-4.5h-12
		c-1.4,0-2.5,1.1-2.5,2.5v36.4H63.5c1.9,1.6,3.1,3.9,3.5,6.4h20.8c0.7-5.1,5.1-9,10.3-9c5.3,0,9.6,3.9,10.3,9h10.3
		c0.7,0,1.3-0.6,1.3-1.3v-3.9C120,87.4,119.4,86.8,118.7,86.8z M106.1,66.1H90.2c-0.7,0-1.3-0.6-1.3-1.3V56c0-0.7,0.6-1.3,1.3-1.3
		h9.7c0.4,0,0.8,0.2,1,0.5l6.2,8.8C107.7,65,107.1,66.1,106.1,66.1z M77.1,84.3H32.5c-1.4,0-2.5-1.1-2.5-2.5V70.3
		c0-1.4,1.1-2.5,2.5-2.5h44.5c1.4,0,2.5,1.1,2.5,2.5v11.5C79.6,83.1,78.5,84.3,77.1,84.3z M50.4,63.9H32.5c-1.4,0-2.5-1.1-2.5-2.5
		V49.9c0-1.4,1.1-2.5,2.5-2.5h17.8c1.4,0,2.5,1.1,2.5,2.5v11.5C52.9,62.8,51.8,63.9,50.4,63.9z M77.1,63.9H59.3
		c-1.4,0-2.5-1.1-2.5-2.5V49.9c0-1.4,1.1-2.5,2.5-2.5h17.8c1.4,0,2.5,1.1,2.5,2.5v11.5C79.6,62.8,78.5,63.9,77.1,63.9z"/>
</g>
</svg>
