<?xml version="1.0" encoding="utf-8"?>
<!-- Generator: Adobe Illustrator 21.0.0, SVG Export Plug-In . SVG Version: 6.00 Build 0)  -->
<svg version="1.1" id="圖層_1" xmlns="http://www.w3.org/2000/svg" xmlns:xlink="http://www.w3.org/1999/xlink" x="0px" y="0px"
	 viewBox="0 0 150 150" style="enable-background:new 0 0 150 150;" xml:space="preserve">
<style type="text/css">
	.st0{fill:#F26529;}
	.st1{fill:#FFFFFF;}
</style>
<g>
	<circle class="st0" cx="75" cy="75" r="75"/>
</g>
<g>
	<g>
		<path class="st1" d="M118.4,78.2L82,56.5c4.1-3.8,4.4-10.1,0.6-14.2c-1.2-1.3-2.7-2.3-4.4-2.8V26.4h-6.2v15.7
			c0,1.7,1.4,3.1,3.1,3.1c2.2,0,3.9,1.8,3.9,3.9c0,2.2-1.8,3.9-3.9,3.9c-2.2,0-3.9-1.8-3.9-3.9h-6.2c0,2.8,1.1,5.5,3.1,7.4
			L31.6,78.2c-1,0.6-1.6,1.6-1.6,2.7v39.6c0,1.7,1.4,3.1,3.1,3.1h83.8c1.7,0,3.1-1.4,3.1-3.1V80.8C120,79.7,119.4,78.8,118.4,78.2z
			 M75,59.5l30.6,18.2H44.4L75,59.5z M46.9,113.2h-6.2V88.1h6.2V113.2z M57.3,113.2h-6.2V88.1h6.2V113.2z M67.7,113.2h-6.2V88.1h6.2
			V113.2z M78.1,113.2h-6.2V88.1h6.2V113.2z M88.5,113.2h-6.2V88.1h6.2V113.2z M98.9,113.2h-6.2V88.1h6.2V113.2z M109.3,113.2h-6.2
			V88.1h6.2V113.2z"/>
	</g>
</g>
</svg>
