<?xml version="1.0" encoding="utf-8"?>
<!-- Generator: Adobe Illustrator 21.0.0, SVG Export Plug-In . SVG Version: 6.00 Build 0)  -->
<svg version="1.1" id="圖層_1" xmlns="http://www.w3.org/2000/svg" xmlns:xlink="http://www.w3.org/1999/xlink" x="0px" y="0px"
	 viewBox="0 0 30 30" style="enable-background:new 0 0 30 30;" xml:space="preserve">
<style type="text/css">
	.st0{fill:#FF4612;}
</style>
<path class="st0" d="M0,0l14.6,9.2l-2.9,9l9-2.8L30,30V0L0,0z M23,6.6L2.6,0.5l26.6,0L23,6.6z M20.6,14.9L13,17.2l9.7-9.6L20.6,14.9
	z M23.1,7.7L29,27.5L21,15L23.1,7.7z M23.4,6.9l6.1-6.1v26.6L23.4,6.9z M2.5,1l19.7,5.8l-7.3,2L2.5,1z M15,9.3l7.2-1.9l-9.6,9.5
	L15,9.3z"/>
</svg>
