<?xml version="1.0" encoding="utf-8"?>
<!-- Generator: Adobe Illustrator 19.1.0, SVG Export Plug-In . SVG Version: 6.00 Build 0)  -->
<svg version="1.1" id="Capa_1" xmlns="http://www.w3.org/2000/svg" xmlns:xlink="http://www.w3.org/1999/xlink" x="0px" y="0px"
	 viewBox="-126 78.6 45.4 45.4" style="enable-background:new -126 78.6 45.4 45.4;" xml:space="preserve">
<style type="text/css">
	.st0{fill:#FFFFFF;}
</style>
<path class="st0" d="M-103.3,95.6c-2,0-3.5,1.6-3.5,3.7v12.5c0,2,1.4,3.7,3.5,3.7c2,0,3.5-1.6,3.5-3.7V99.3
	C-99.9,97.2-101.3,95.6-103.3,95.6z"/>
<path class="st0" d="M-103.3,86c-2.1,0-3.8,1.7-3.8,3.8c0,2.1,1.7,3.8,3.8,3.8c2.1,0,3.8-1.7,3.8-3.8C-99.5,87.7-101.2,86-103.3,86z
	"/>
<path class="st0" d="M-103.3,78.6c-12.5,0-22.7,10.2-22.7,22.7c0,12.5,10.2,22.7,22.7,22.7s22.7-10.2,22.7-22.7
	S-90.8,78.6-103.3,78.6z M-103.3,119.1c-9.8,0-17.7-8-17.7-17.8s8-17.7,17.7-17.7c9.8,0,17.7,8,17.7,17.7S-93.5,119.1-103.3,119.1z"
	/>
</svg>
