<?xml version="1.0" encoding="utf-8"?>
<!-- Generator: Adobe Illustrator 21.0.0, SVG Export Plug-In . SVG Version: 6.00 Build 0)  -->
<svg version="1.1" id="圖層_1" xmlns="http://www.w3.org/2000/svg" xmlns:xlink="http://www.w3.org/1999/xlink" x="0px" y="0px"
	 viewBox="0 0 150 150" style="enable-background:new 0 0 150 150;" xml:space="preserve">
<style type="text/css">
	.st0{fill:#EC681E;}
	.st1{fill:#FFFFFF;}
</style>
<g>
	<circle class="st0" cx="75" cy="75" r="75"/>
</g>
<g>
	<path class="st1" d="M103,72.2c-2.1,2.4-4.2,4.9-5.6,8.4c-0.7,1.6-2.2,2.7-4,2.7c-1.8,0-3.3-1.1-4-2.7c-1.7-4.1-4.2-6.9-6.6-9.5
		c-0.6-0.7-1.2-1.4-1.8-2c0,0-0.1,0-0.1,0c-2.4,0.7-4.2,3.9-3.1,6.4c0.8,1.8,6,1.4,5.6,5.2c-0.4,3.1,3.7,3.9,5.1,3.8
		c1.4-0.2,3.6,2.4,2.5,3.5c-1.1,1.1-3.2,1.2-2.9,4c0.1,0.8,2.6,0.7,2.6,2c0,1.3-1.3,2.7-0.3,4.2c0.2,0.3,0.4,0.6,0.7,0.8
		c-4.8,4.5-11.3,7.2-18.4,7.2c-15,0-27.2-12.2-27.2-27.2c0-4.5,1.1-8.8,3.1-12.6c0,4.9,2.6,8.9,3.8,10.2c4,4,9.8,2.7,10.5,6.1
		c0.8,3.3-4,3.3-3.7,5.9c0.3,2.6,6.5,3.2,5.1,5.6c-1.8,3.1,1.2,3.3,0.3,7.2c-0.5,2.1,2.6,2.5,3.7,0.9c0.9-1.2,0.7-2.7,2.4-4.6
		c2.1-2.3,7-2.6,6.5-6.3c-0.9-6.2-6.9-7.1-9.6-8.6c-3-1.6-2.2-5.5-2.9-7.4c-0.9-2.7-4,0.7-5.6-0.8c-2.7-2.5,0.5-6.1,2.7-6
		c4.8,0.2,6.2,4.8,8,4.6c1.7-0.2,2.8-2.5,3.1-3.8c0.6-2.8-1.1-1.5-1.8-3c-0.9-1.9,3.2-3.8,4.8-5.2c0.2-0.2,0.4-0.4,0.5-0.6
		c0.5-0.9-0.2-1.7-1.2-2.3c-2.1-1.3-6.1-2.3-6.2-4.4c-0.1-1.2,2.3-1.8,5-2c0.5,0,0.9,0.1,1.3,0.1c0.2-1.3,0.6-2.5,1.1-3.7
		c-1.3-0.2-2.6-0.3-4-0.3c-17.1,0-31,13.9-31,31c0,17.1,13.9,31,31,31s31-13.9,31-31C103.7,76.7,103.4,74.4,103,72.2z M91.9,40.1
		c-8.8,0.8-14.8,9.3-13.2,18c1.6,8.8,9.7,11.5,13.7,21.4c0.4,0.9,1.6,0.9,2,0c4.5-11,14-13.1,14-24.5
		C108.3,46.2,100.8,39.2,91.9,40.1z M93.4,62.8c-4.4,0-7.9-3.5-7.9-7.9c0-4.4,3.5-7.9,7.9-7.9s7.9,3.5,7.9,7.9S97.7,62.8,93.4,62.8z
		"/>
</g>
</svg>
