<?xml version="1.0" encoding="utf-8"?>
<!-- Generator: Adobe Illustrator 21.0.0, SVG Export Plug-In . SVG Version: 6.00 Build 0)  -->
<svg version="1.1" id="圖層_1" xmlns="http://www.w3.org/2000/svg" xmlns:xlink="http://www.w3.org/1999/xlink" x="0px" y="0px"
	 viewBox="0 0 150 150" style="enable-background:new 0 0 150 150;" xml:space="preserve">
<style type="text/css">
	.st0{fill:#00397B;}
	.st1{fill:#FFFFFF;}
</style>
<g>
	<circle class="st0" cx="75" cy="75" r="75"/>
</g>
<g>
	<path class="st1" d="M75,40c-19.3,0-35,15.7-35,35s15.7,35,35,35s35-15.7,35-35S94.3,40,75,40z M75,105.4
		c-16.8,0-30.4-13.6-30.4-30.4S58.2,44.6,75,44.6s30.4,13.6,30.4,30.4S91.8,105.4,75,105.4z"/>
	<path class="st1" d="M77.3,72.9V59.9c1.3,0.5,2.4,1.4,3.2,2.6c0.7,1.1,2.1,1.4,3.2,0.7c1.1-0.7,1.4-2.1,0.7-3.2
		c-1.7-2.5-4.2-4.2-7.1-4.8v-3.7c0-1.3-1-2.3-2.3-2.3c-1.3,0-2.3,1-2.3,2.3v3.7c-5.1,1.1-8.9,5.6-8.9,11s3.8,9.9,8.9,11v13.1
		c-1.3-0.5-2.4-1.4-3.2-2.6c-0.7-1.1-2.1-1.4-3.2-0.7c-1.1,0.7-1.4,2.1-0.7,3.2c1.7,2.5,4.2,4.2,7.1,4.8v3.7c0,1.3,1,2.3,2.3,2.3
		c1.3,0,2.3-1,2.3-2.3v-3.7c5.1-1.1,8.9-5.6,8.9-11C86.2,78.5,82.4,74,77.3,72.9L77.3,72.9z M68.4,66.1c0-2.8,1.8-5.3,4.3-6.2v12.4
		C70.2,71.3,68.4,68.9,68.4,66.1z M77.3,90.1V77.7c2.5,0.9,4.3,3.4,4.3,6.2S79.8,89.2,77.3,90.1z"/>
</g>
</svg>
