<?xml version="1.0" encoding="utf-8"?>
<!-- Generator: Adobe Illustrator 21.0.0, SVG Export Plug-In . SVG Version: 6.00 Build 0)  -->
<svg version="1.1" id="Capa_1" xmlns="http://www.w3.org/2000/svg" xmlns:xlink="http://www.w3.org/1999/xlink" x="0px" y="0px"
	 viewBox="0 0 30 30" style="enable-background:new 0 0 30 30;" xml:space="preserve">
<style type="text/css">
	.st0{fill:#448AFF;}
	.st1{fill:#FFFFFF;}
</style>
<path class="st0" d="M4.3,0h21.4C28.1,0,30,1.9,30,4.3v21.4c0,2.4-1.9,4.3-4.3,4.3H4.3C1.9,30,0,28.1,0,25.7V4.3C0,1.9,1.9,0,4.3,0z
	"/>
<g>
	<path class="st1" d="M14.9,9.2h-2.8c0.4,0.6,0.7,1.2,0.9,1.7l-1.7,0.4c-0.2-0.5-0.6-1.3-1.2-2.3H9.5c-0.6,0.8-1.3,1.5-2,2.1L6,10.1
		c1.3-0.9,2.5-2.4,3.5-4.2l1.6,0.6c-0.2,0.4-0.4,0.7-0.5,0.9H15v1.7H14.9z M9,24.1H7.2V14H9V24.1z M12,13.2l-1.3,1.1
		c-0.7-0.8-1.6-1.5-2.8-2.2l1.3-1.2C10.4,11.8,11.3,12.5,12,13.2z M19.4,22.1H11v-7.6h8.4V22.1z M23.2,22.4c0,0.6-0.2,0.9-0.5,1.2
		c-0.3,0.2-0.9,0.4-1.6,0.4c-0.2,0-0.5,0-0.7,0l-0.6-1.8c0.4,0,0.7,0.1,1,0.1s0.6,0,0.6-0.1c0.1-0.1,0.1-0.1,0.1-0.3v-8.8h-8.8v-1.5
		h10.5C23.2,11.6,23.2,22.4,23.2,22.4z M17.7,17.6v-1.5h-4.9v1.5H17.7z M17.7,20.6v-1.4h-4.9v1.4H17.7z M24,9.2h-3.4
		c0.3,0.5,0.6,1,0.8,1.6l-1.7,0.4c-0.2-0.6-0.6-1.3-1.1-2h-0.9c-0.5,0.7-1.2,1.4-1.9,2.1l-1.4-1c1.4-1.1,2.5-2.7,3.3-4.3l1.7,0.4
		c-0.1,0.4-0.3,0.7-0.6,1.1H24V9.2z"/>
</g>
</svg>
