<?xml version="1.0" encoding="utf-8"?>
<!-- Generator: Adobe Illustrator 21.0.0, SVG Export Plug-In . SVG Version: 6.00 Build 0)  -->
<svg version="1.1" id="Capa_1" xmlns="http://www.w3.org/2000/svg" xmlns:xlink="http://www.w3.org/1999/xlink" x="0px" y="0px"
	 viewBox="0 0 30 30" style="enable-background:new 0 0 30 30;" xml:space="preserve">
<style type="text/css">
	.st0{fill:#448AFF;}
	.st1{fill:#FFFFFF;}
</style>
<path class="st0" d="M4.3,0h21.4C28.1,0,30,1.9,30,4.3v21.4c0,2.4-1.9,4.3-4.3,4.3H4.3C1.9,30,0,28.1,0,25.7V4.3C0,1.9,1.9,0,4.3,0z
	"/>
<g>
	<path class="st1" d="M6,7.9h7.4v1.6H7.8v4.5H13v1.6H7.8v5.1h5.8v1.6H6V7.9z"/>
	<path class="st1" d="M15.2,7.9h2.3l4.7,11.9h0V7.9H24v14.2h-2.4L17,10.6h0v11.5h-1.8V7.9z"/>
</g>
</svg>
