<?xml version="1.0" encoding="utf-8"?>
<!-- Generator: Adobe Illustrator 21.0.0, SVG Export Plug-In . SVG Version: 6.00 Build 0)  -->
<svg version="1.1" id="Capa_1" xmlns="http://www.w3.org/2000/svg" xmlns:xlink="http://www.w3.org/1999/xlink" x="0px" y="0px"
	 viewBox="0 0 288.1 288" style="enable-background:new 0 0 288.1 288;" xml:space="preserve">
<style type="text/css">
	.st0{fill:#004499;}
	.st1{fill:#FFFFFF;}
</style>
<g>
	<path class="st0" d="M0,25C0,11.2,11.2,0,25,0h238.1c13.8,0,25,11.2,25,25v238c0,13.8-11.2,25-25,25H25c-13.8,0-25-11.2-25-25V25"
		/>
	<path class="st1" d="M133.8,102.8h27V90.5v-12v-2c0-11.5,0.3-29.4,8.7-40.4c8.8-11.7,21-19.6,41.9-19.6c34,0,48.4,4.8,48.4,4.8
		l-6.8,40c0,0-11.3-3.3-21.8-3.3s-19.9,3.8-19.9,14.3v4.3v14v12.2h43l-3,39h-40v135.7h-50.6V141.8h-27V102.8"/>
</g>
</svg>
