<?xml version="1.0" encoding="utf-8"?>
<!-- Generator: Adobe Illustrator 21.0.0, SVG Export Plug-In . SVG Version: 6.00 Build 0)  -->
<svg version="1.1" id="圖層_1" xmlns="http://www.w3.org/2000/svg" xmlns:xlink="http://www.w3.org/1999/xlink" x="0px" y="0px"
	 viewBox="0 0 150 150" style="enable-background:new 0 0 150 150;" xml:space="preserve">
<style type="text/css">
	.st0{fill:#F26529;}
	.st1{fill:#FFFFFF;}
</style>
<g>
	<circle class="st0" cx="75" cy="75" r="75"/>
</g>
<g>
	<g>
		<path class="st1" d="M60.1,103H43.3c-3.2,0-5.8-2.5-5.8-5.7V45.4c0-3.2,2.6-5.7,5.8-5.7h40.5c3.2,0,5.8,2.5,5.8,5.7v43.5l7.5-8.9
			V39.8c0-4.2-3.3-7.6-7.5-7.6H37.3c-4,0-7.3,3.3-7.3,7.3V103c0,4.2,3.4,7.6,7.6,7.6H67l-3.5-3C62,106.3,60.8,104.7,60.1,103z"/>
		<path class="st1" d="M80.7,49.3H47.1c-2.1,0-3.7,1.7-3.7,3.7c0,2.1,1.7,3.7,3.7,3.7h33.6c2.1,0,3.7-1.7,3.7-3.7
			C84.5,51,82.8,49.3,80.7,49.3z"/>
		<path class="st1" d="M80.7,61.8H47.1c-2.1,0-3.7,1.7-3.7,3.7c0,2.1,1.7,3.7,3.7,3.7h33.6c2.1,0,3.7-1.7,3.7-3.7
			C84.5,63.4,82.8,61.8,80.7,61.8z"/>
		<path class="st1" d="M80.7,74.2H47.1c-2.1,0-3.7,1.6-3.7,3.7c0,2.1,1.7,3.6,3.7,3.6h33.6c2.1,0,3.7-1.6,3.7-3.6
			C84.5,75.8,82.8,74.2,80.7,74.2z"/>
		<path class="st1" d="M43.4,89.8c0,2.1,1.7,3.6,3.7,3.6h12.5c0.5-1.3,1.3-2.9,2.4-4.2c1.2-1.3,2.5-2.3,4-3.1h-19
			C45.1,86.1,43.4,87.7,43.4,89.8z"/>
		<path class="st1" d="M80.7,86.1h-2.8c0.9,0.4,1.8,1,2.6,1.7l3.7,3.2c0.1-0.4,0.2-0.8,0.2-1.2C84.5,87.7,82.8,86.1,80.7,86.1z"/>
		<path class="st1" d="M117.7,76.1c-2.7-2.4-6.9-2-9.2,0.7L87,102l-10.7-9.2c-2.7-2.3-6.9-2-9.2,0.7c-2.4,2.7-2,6.9,0.7,9.2
			l15.7,13.5c1.2,1,2.7,1.6,4.3,1.6c0.2,0,0.3,0,0.5,0c1.7-0.1,3.3-1,4.5-2.3l25.7-30.2C120.8,82.6,120.5,78.5,117.7,76.1z"/>
	</g>
</g>
</svg>
