<?xml version="1.0" encoding="utf-8"?>
<!-- Generator: Adobe Illustrator 21.0.0, SVG Export Plug-In . SVG Version: 6.00 Build 0)  -->
<svg version="1.1" id="圖層_1" xmlns="http://www.w3.org/2000/svg" xmlns:xlink="http://www.w3.org/1999/xlink" x="0px" y="0px"
	 viewBox="0 0 89.9 82.6" style="enable-background:new 0 0 89.9 82.6;" xml:space="preserve">
<style type="text/css">
	.st0{opacity:0.2;}
	.st1{fill:#F26529;}
</style>
<g class="st0">
	<g>
		<path class="st1" d="M77.8,12.1C70,4.3,59.6,0,48.6,0C37.4,0,26.9,4.4,19,12.5c-0.9,0.9-0.8,2.3,0,3.1c0.9,0.9,2.3,0.8,3.1,0
			c7-7.2,16.4-11.1,26.4-11.1c20.3,0,36.8,16.5,36.8,36.8S68.9,78.1,48.6,78.1S11.8,61.6,11.8,41.3v-0.5l3.7,3.7
			c0.4,0.4,1,0.6,1.6,0.6s1.1-0.2,1.6-0.6c0.9-0.9,0.9-2.3,0-3.1l-7.4-7.5C10.4,33,9,33,8.2,33.9l-7.5,7.5c-0.9,0.9-0.9,2.3,0,3.1
			c0.4,0.4,1,0.6,1.6,0.6s1.1-0.2,1.6-0.6l3.7-3.7v0.5c0,11,4.3,21.4,12.1,29.2s18.2,12.1,29.2,12.1s21.4-4.3,29.2-12.1
			s11.8-18.2,11.8-29.2S85.6,19.9,77.8,12.1z"/>
		<path class="st1" d="M48.6,17.3c-7.2,0-13.1,5.9-13.1,13.1v6.3h-4.1c-1.2,0-2.2,1-2.2,2.2v22.2c0,1.2,1,2.2,2.2,2.2h34.4
			c1.2,0,2.2-1,2.2-2.2V38.9c0-1.2-1-2.2-2.2-2.2h-4.1v-6.3C61.7,23.2,55.8,17.3,48.6,17.3z M40,30.4c0-4.8,3.9-8.6,8.6-8.6
			c4.8,0,8.6,3.9,8.6,8.6v6.3H40V30.4L40,30.4z M63.6,58.9H33.7V41.2h29.9V58.9z"/>
	</g>
</g>
</svg>
