<?xml version="1.0" encoding="utf-8"?>
<!-- Generator: Adobe Illustrator 21.0.0, SVG Export Plug-In . SVG Version: 6.00 Build 0)  -->
<svg version="1.1" id="圖層_1" xmlns="http://www.w3.org/2000/svg" xmlns:xlink="http://www.w3.org/1999/xlink" x="0px" y="0px"
	 viewBox="0 0 150 150" style="enable-background:new 0 0 150 150;" xml:space="preserve">
<style type="text/css">
	.st0{fill:#EC681E;}
	.st1{fill:#FFFFFF;}
</style>
<g>
	<circle class="st0" cx="75" cy="75" r="75"/>
</g>
<g>
	<g>
		<g>
			<rect x="35" y="101.8" class="st1" width="80" height="4.8"/>
		</g>
	</g>
	<g>
		<g>
			<g>
				<path class="st1" d="M111.9,54.4c-1.7-2.9-4.3-4.9-7.5-5.8c-3.2-0.9-6.5-0.4-9.4,1.2L71.5,63.3l-16.9-8.5l-9.7,5.6l10.5,12.1
					l-6.2,3.6l-7.4-5.8l-8.3,4.8l4.3,7.5l7,12.2l29.9-4.8l32.5-18.8C113.3,67.9,115.3,60.3,111.9,54.4z M52.2,61.7l2.5-1.4L76,70.9
					L65.5,77l-5.9-6.8h0L52.2,61.7z M42,80.4L40,77l1.4-0.8l3.3,2.6l-1,0.6L42,80.4z M105,67.2L73.2,85.6l-25.8,4.1l-3-5.2l8.9-5.1
					l0,0l5.3-3.1l5.9,6.8L86,70.6l-9.4-4.7l20.7-12c1.8-1,3.8-1.3,5.8-0.8c2,0.5,3.6,1.8,4.7,3.6C109.9,60.4,108.6,65.1,105,67.2z"
					/>
			</g>
		</g>
		<g>
			<g>
				<rect x="87.1" y="63.4" transform="matrix(0.866 -0.5 0.5 0.866 -20.8836 53.6278)" class="st1" width="5.1" height="4.8"/>
			</g>
		</g>
		<g>
			<g>
				<rect x="94.7" y="59" transform="matrix(0.866 -0.5 0.5 0.866 -17.6364 56.8752)" class="st1" width="5.1" height="4.8"/>
			</g>
		</g>
	</g>
</g>
</svg>
