<?xml version="1.0" encoding="utf-8"?>
<!-- Generator: Adobe Illustrator 21.0.0, SVG Export Plug-In . SVG Version: 6.00 Build 0)  -->
<svg version="1.1" id="圖層_1" xmlns="http://www.w3.org/2000/svg" xmlns:xlink="http://www.w3.org/1999/xlink" x="0px" y="0px"
	 viewBox="0 0 63.5 57.6" style="enable-background:new 0 0 63.5 57.6;" xml:space="preserve">
<style type="text/css">
	.st0{fill:#FA4616;}
</style>
<g>
	<g>
		<path class="st0" d="M34.7,0C18.8,0,5.9,12.9,5.9,28.7c0,0.3-0.2,4.4,1,8.9L3,35.4c-1-0.6-2.2-0.2-2.8,0.7c-0.6,1-0.2,2.2,0.7,2.8
			l9.1,5.3c0,0,0,0,0.1,0c0.1,0.1,0.2,0.1,0.3,0.1c0.1,0,0.1,0.1,0.2,0.1c0.1,0,0.2,0,0.3,0c0.1,0,0.1,0,0.2,0c0,0,0.1,0,0.1,0
			c0,0,0.1,0,0.1,0c0.1,0,0.1,0,0.1,0c0.1,0,0.2,0,0.3-0.1c0.1,0,0.2-0.1,0.2-0.1c0.1,0,0.2-0.1,0.2-0.1c0.1,0,0.1-0.1,0.2-0.2
			c0.1-0.1,0.1-0.1,0.2-0.2c0.1-0.1,0.1-0.1,0.2-0.2c0,0,0.1-0.1,0.1-0.1c0,0,0-0.1,0-0.1c0-0.1,0.1-0.1,0.1-0.2l3.6-9
			c0.4-1-0.1-2.2-1.1-2.6c-1-0.4-2.2,0.1-2.6,1.1L11,37.3c-1.2-4.1-1.1-8.4-1.1-8.5C9.9,15.1,21,4,34.7,4
			c13.7,0,24.8,11.1,24.8,24.8c0,13.7-11.1,24.8-24.8,24.8c-1.1,0-2,0.9-2,2s0.9,2,2,2c15.9,0,28.8-12.9,28.8-28.8
			C63.5,12.9,50.6,0,34.7,0z"/>
		<path class="st0" d="M33.9,32.7c0.2,0.1,0.4,0.1,0.6,0.1c0,0,0.1,0,0.1,0c0.2,0,0.5-0.1,0.7-0.1c0.1,0,0.1-0.1,0.2-0.1
			c0.2-0.1,0.3-0.2,0.5-0.3c0,0,0.1,0,0.1-0.1l12.6-12.6c0.8-0.8,0.8-2.1,0-2.9c-0.8-0.8-2.1-0.8-2.9,0L34.2,28.4l-10.4-4.4
			c-1-0.4-2.2,0.1-2.6,1.1c-0.4,1,0.1,2.2,1.1,2.6L33.9,32.7C33.9,32.7,33.9,32.7,33.9,32.7z"/>
	</g>
</g>
</svg>
