<?xml version="1.0" encoding="utf-8"?>
<!-- Generator: Adobe Illustrator 21.0.0, SVG Export Plug-In . SVG Version: 6.00 Build 0)  -->
<svg version="1.1" id="圖層_1" xmlns="http://www.w3.org/2000/svg" xmlns:xlink="http://www.w3.org/1999/xlink" x="0px" y="0px"
	 viewBox="0 0 150 150" style="enable-background:new 0 0 150 150;" xml:space="preserve">
<style type="text/css">
	.st0{fill:#00397B;}
	.st1{fill:#FFFFFF;}
</style>
<g>
	<circle class="st0" cx="75" cy="75" r="75"/>
</g>
<g>
	<path class="st1" d="M107.2,56.5c0-0.3-0.1-0.5-0.2-0.8c-0.2-0.5-0.7-0.8-1.2-0.9L75.7,40.2c-0.5-0.2-1.1-0.2-1.6,0L43.8,54.9
		c-0.6,0.3-1,0.9-1,1.5v0c0,0,0,0,0,0.1v37c0,0.7,0.4,1.3,1,1.6l30.4,14.7c0,0,0,0,0,0c0,0,0.1,0,0.1,0.1c0,0,0,0,0.1,0
		c0,0,0.1,0,0.1,0c0,0,0,0,0,0c0,0,0.1,0,0.1,0c0,0,0,0,0,0c0.1,0,0.1,0,0.2,0c0.1,0,0.1,0,0.2,0c0,0,0,0,0,0c0,0,0.1,0,0.1,0
		c0,0,0,0,0,0c0,0,0.1,0,0.1,0c0,0,0,0,0.1,0c0,0,0.1,0,0.1-0.1c0,0,0,0,0,0L106.2,95c0.6-0.3,1-0.9,1-1.6L107.2,56.5
		C107.2,56.5,107.2,56.5,107.2,56.5z M74.9,43.7l26.4,12.8l-9.7,4.7L65.2,48.5L74.9,43.7z M74.9,69.3L48.6,56.5l12.6-6.1l26.4,12.8
		L74.9,69.3z M46.3,59.4l26.8,13v33l-26.8-13V59.4z M76.7,105.4v-33l12.6-6.1v8.6c0,1,0.8,1.8,1.8,1.8c1,0,1.8-0.8,1.8-1.8V64.5
		l10.8-5.2v33L76.7,105.4z"/>
</g>
</svg>
