<?xml version="1.0" encoding="utf-8"?>
<!-- Generator: Adobe Illustrator 21.0.0, SVG Export Plug-In . SVG Version: 6.00 Build 0)  -->
<svg version="1.1" id="Capa_1" xmlns="http://www.w3.org/2000/svg" xmlns:xlink="http://www.w3.org/1999/xlink" x="0px" y="0px"
	 viewBox="0 0 30 30" style="enable-background:new 0 0 30 30;" xml:space="preserve">
<style type="text/css">
	.st0{fill:#FFFFFF;}
</style>
<g>
	<path class="st0" d="M19.5,15.1c0.4-1.6,0.2-3.9,1.3-4.8c2.3-2.1,0.1-5.4,2.6-7.2c0,0-0.2-0.3-0.3-0.5c-0.9-1.1-2.6-1.1-3.6-2.6
		c-1,2.2-3.7,1.5-4.7,3.2c-1,1.8-2.5,3.2-3.6,4.9c-1.3,2.1-3,4-3.7,6.2C6.6,17,6,19.8,7.7,22.6c0.8,1.2,1.2,2.6,2.6,3.2
		c1.1,0.5,1.5,1.4,1.6,2.5c0.1,0.8-0.2,1.9,1,1.7c0.9-0.1,0.9-1.1,0.9-1.9c-0.1-1.7,0.2-3.4,1.3-4.4C17.7,21.3,18.8,18.3,19.5,15.1z
		"/>
</g>
</svg>
