<?xml version="1.0" encoding="utf-8"?>
<!-- Generator: Adobe Illustrator 21.0.0, SVG Export Plug-In . SVG Version: 6.00 Build 0)  -->
<svg version="1.1" id="圖層_1" xmlns="http://www.w3.org/2000/svg" xmlns:xlink="http://www.w3.org/1999/xlink" x="0px" y="0px"
	 viewBox="0 0 150 150" style="enable-background:new 0 0 150 150;" xml:space="preserve">
<style type="text/css">
	.st0{fill:#F26529;}
	.st1{fill:#FFFFFF;}
</style>
<g>
	<circle class="st0" cx="75" cy="75" r="75"/>
</g>
<g>
	<path class="st1" d="M119.2,58.6L75.8,34.1c-0.5-0.3-1.1-0.3-1.6,0L30.8,58.6C30.3,58.8,30,59.4,30,60v55.6c0,0.3,0.2,0.5,0.5,0.5
		h9.6c0.3,0,0.5-0.2,0.5-0.5V68.4h68.9v47.2c0,0.3,0.2,0.5,0.5,0.5h9.6c0.3,0,0.5-0.2,0.5-0.5V60C120,59.4,119.7,58.8,119.2,58.6z"
		/>
	<g>
		<g>
			<g>
				<path class="st1" d="M102,101.2H90.3c-0.9,0-1.6,0.7-1.6,1.6v11.7c0,0.9,0.7,1.6,1.6,1.6H102c0.9,0,1.6-0.7,1.6-1.6v-11.7
					C103.6,101.9,102.9,101.2,102,101.2z"/>
				<path class="st1" d="M80.9,101.2H69.1c-0.9,0-1.6,0.7-1.6,1.6v11.7c0,0.9,0.7,1.6,1.6,1.6h11.7c0.9,0,1.6-0.7,1.6-1.6v-11.7
					C82.5,101.9,81.7,101.2,80.9,101.2z"/>
			</g>
			<path class="st1" d="M59.7,101.2H48c-0.9,0-1.6,0.7-1.6,1.6v11.7c0,0.9,0.7,1.6,1.6,1.6h11.7c0.9,0,1.6-0.7,1.6-1.6v-11.7
				C61.3,101.9,60.6,101.2,59.7,101.2z"/>
		</g>
		<g>
			<g>
				<path class="st1" d="M102,79.6H90.3c-0.9,0-1.6,0.7-1.6,1.6v11.7c0,0.9,0.7,1.6,1.6,1.6H102c0.9,0,1.6-0.7,1.6-1.6V81.2
					C103.6,80.3,102.9,79.6,102,79.6z"/>
				<path class="st1" d="M80.9,79.6H69.1c-0.9,0-1.6,0.7-1.6,1.6v11.7c0,0.9,0.7,1.6,1.6,1.6h11.7c0.9,0,1.6-0.7,1.6-1.6V81.2
					C82.5,80.3,81.7,79.6,80.9,79.6z"/>
			</g>
			<path class="st1" d="M59.7,79.6H48c-0.9,0-1.6,0.7-1.6,1.6v11.7c0,0.9,0.7,1.6,1.6,1.6h11.7c0.9,0,1.6-0.7,1.6-1.6V81.2
				C61.3,80.3,60.6,79.6,59.7,79.6z"/>
		</g>
	</g>
</g>
</svg>
