<?xml version="1.0" encoding="utf-8"?>
<!-- Generator: Adobe Illustrator 21.0.0, SVG Export Plug-In . SVG Version: 6.00 Build 0)  -->
<svg version="1.1" id="Capa_1" xmlns="http://www.w3.org/2000/svg" xmlns:xlink="http://www.w3.org/1999/xlink" x="0px" y="0px"
	 viewBox="0 0 30 30" style="enable-background:new 0 0 30 30;" xml:space="preserve">
<style type="text/css">
	.st0{fill:#FFFFFF;}
</style>
<g>
	<g>
		<path class="st0" d="M7.3,12.6c0.8-0.1,1.7,0.2,2.3,0.8l1.5,1.5l1.4-1.4l-2-2c-0.3-0.3-0.3-0.8,0-1.2c0.3-0.3,0.8-0.3,1.2,0l2,2
			l1.4-1.4l-1.5-1.5C13,8.8,12.7,8,12.8,7.1C13,5.2,12.4,3.2,11,1.8c-1.6-1.4-3.6-2-5.5-1.7c-0.3,0-0.4,0.4-0.2,0.6l1.9,1.9
			c0.9,0.9,0.9,2.4,0,3.3L6,7.1C5.1,8,3.6,8,2.7,7.1L0.8,5.2C0.6,5,0.2,5.1,0.2,5.4c-0.3,1.9,0.3,4,1.8,5.4
			C3.4,12.3,5.4,12.9,7.3,12.6z"/>
		<path class="st0" d="M19.2,15.2l-1.4,1.4l8.4,8.4c0.3,0.3,0.3,0.8,0,1.2c-0.3,0.3-0.8,0.3-1.2,0l-8.4-8.4l-1.4,1.4l8.6,8.6
			c1.1,1.1,2.9,1.1,4,0s1.1-2.9,0-4L19.2,15.2z"/>
		<path class="st0" d="M22.5,9.6h3.7l3.7-7.4L28,0.3L20.6,4v3.7L10.5,17.8L8.7,16l-7.3,7.3c-1.5,1.5-1.5,4,0,5.5s4,1.5,5.5,0
			l7.3-7.3l-1.9-1.9L22.5,9.6z"/>
	</g>
</g>
</svg>
