<?xml version="1.0" encoding="utf-8"?>
<!-- Generator: Adobe Illustrator 21.0.0, SVG Export Plug-In . SVG Version: 6.00 Build 0)  -->
<svg version="1.1" id="Capa_1" xmlns="http://www.w3.org/2000/svg" xmlns:xlink="http://www.w3.org/1999/xlink" x="0px" y="0px"
	 viewBox="0 0 30 30" style="enable-background:new 0 0 30 30;" xml:space="preserve">
<style type="text/css">
	.st0{fill:#FFFFFF;}
</style>
<path class="st0" d="M29.2,19.9c0.5-1.5,0.8-3.2,0.8-4.9s-0.3-3.4-0.8-4.9V10C27,4.1,21.5,0,15,0S3,4.1,0.9,9.9V10
	C0.3,11.6,0,13.3,0,15s0.3,3.4,0.8,4.9V20C3,25.9,8.5,30,15,30s12-4.1,14.1-9.9C29.1,20,29.2,20,29.2,19.9z M15,27.9
	c-0.6,0-1.5-1-2.3-3.3c-0.4-1.1-0.7-2.4-0.9-3.8h6.3c-0.2,1.4-0.5,2.7-0.9,3.8C16.5,26.8,15.6,27.9,15,27.9z M11.6,18.6
	c-0.1-1.1-0.2-2.3-0.2-3.6s0.1-2.4,0.2-3.6h6.8c0.1,1.1,0.2,2.3,0.2,3.6s-0.1,2.4-0.2,3.6H11.6z M2.2,15c0-1.2,0.2-2.4,0.5-3.6h6.8
	c-0.1,1.2-0.2,2.4-0.2,3.6s0.1,2.4,0.2,3.6H2.7C2.3,17.4,2.2,16.2,2.2,15z M15,2.2c0.6,0,1.5,1,2.3,3.3c0.4,1.1,0.7,2.4,0.9,3.8
	h-6.3c0.2-1.4,0.5-2.7,0.9-3.8C13.5,3.2,14.4,2.2,15,2.2z M20.6,11.4h6.8c0.3,1.1,0.5,2.3,0.5,3.6s-0.2,2.4-0.5,3.6h-6.8
	c0.1-1.2,0.2-2.4,0.2-3.6S20.7,12.6,20.6,11.4z M26.5,9.3h-6.2c-0.4-2.6-1-5-2-6.7C21.9,3.6,24.9,6,26.5,9.3z M11.6,2.6
	c-0.9,1.7-1.6,4-2,6.7H3.5C5.1,6,8.1,3.6,11.6,2.6z M3.5,20.7h6.2c0.4,2.6,1,5,2,6.7C8.1,26.4,5.1,24,3.5,20.7z M18.4,27.4
	c0.9-1.7,1.6-4,2-6.7h6.2C24.9,24,21.9,26.4,18.4,27.4z"/>
</svg>
