<?xml version="1.0" encoding="utf-8"?>
<!-- Generator: Adobe Illustrator 21.0.0, SVG Export Plug-In . SVG Version: 6.00 Build 0)  -->
<svg version="1.1" id="圖層_1" xmlns="http://www.w3.org/2000/svg" xmlns:xlink="http://www.w3.org/1999/xlink" x="0px" y="0px"
	 viewBox="0 0 150 150" style="enable-background:new 0 0 150 150;" xml:space="preserve">
<style type="text/css">
	.st0{fill:#EC681E;}
	.st1{fill:#FFFFFF;}
</style>
<g>
	<circle class="st0" cx="75" cy="75" r="75"/>
</g>
<g>
	<g>
		<g>
			<path class="st1" d="M84.4,40.3c-0.6-0.4-1.4-0.4-2.1,0l-1.5,0.9c-11.1,6.6-25.1,6.6-36.1,0l-1.5-0.9c-0.6-0.4-1.4-0.4-2.1,0
				c-0.6,0.4-1,1-1,1.8v29.2c0,12.7,9.1,23.7,21.6,26.1c0.3,0.1,0.8,0.2,1.1,0.2c0.3,0,1-0.1,1.3-0.2c0,0,0,0,0,0
				c12.4-2.5,21.4-13.5,21.4-26.5V42.1C85.4,41.3,85,40.6,84.4,40.3z M48.9,65.8c-0.8-0.8-0.8-2.1,0-2.9c3.1-3.1,8-3.1,11.1,0
				c0.8,0.8,0.8,2.1,0,2.9s-2.1,0.8-2.9,0c-1.5-1.5-3.8-1.5-5.3,0C51,66.6,49.7,66.6,48.9,65.8z M72.3,79c-1.6,3.8-5.5,6.3-9.6,6.3
				s-7.8-2.5-9.4-6.3c-0.4-1,0-2.2,1.1-2.7c1-0.4,2.2,0,2.7,1.1c1,2.3,3.2,3.8,5.7,3.8c2.5,0,4.8-1.5,5.8-3.8c0.4-1,1.6-1.5,2.7-1.1
				C72.2,76.7,72.7,77.9,72.3,79z M76.6,65.8c-0.8,0.8-2.1,0.8-2.9,0c-1.5-1.5-3.8-1.5-5.3,0c-0.8,0.8-2.1,0.8-2.9,0s-0.8-2.1,0-2.9
				c3.1-3.1,8-3.1,11.1,0C77.4,63.7,77.4,65,76.6,65.8z"/>
		</g>
	</g>
	<g>
		<g>
			<path class="st1" d="M109,52.7c-0.6-0.4-1.4-0.4-2.1,0l-1.5,0.9c-4.8,2.9-10.3,4.6-15.9,4.9v12.4c0,4.8-1.1,9.5-3.1,13.6
				c0.4,0,0.7-0.2,1.1-0.2c4.1,0,7.8,2.5,9.4,6.3c0.4,1,0,2.2-1.1,2.7c-1,0.4-2.2,0-2.7-1.1c-1-2.3-3.2-3.8-5.7-3.8
				s-4.7,1.5-5.7,3.8c-0.3,0.8-1.2,1.3-2,1.2c-2.7,2.6-5.9,4.8-9.4,6.3c3.9,5.1,9.5,8.8,16,10.1c0.3,0.1,0.8,0.2,1.1,0.2
				c0.3,0,0.8-0.1,1.1-0.2C101,107.3,110,96.2,110,83.2V54.5C110,53.8,109.6,53.1,109,52.7z M105.3,72.3c-1.5,1.5-3.5,2.3-5.6,2.3
				s-4-0.8-5.6-2.3c-0.8-0.8-0.8-2.1,0-2.9c0.8-0.8,2.1-0.8,2.9,0c1.5,1.5,3.8,1.5,5.3,0c0.8-0.8,2.1-0.8,2.9,0
				C106.1,70.2,106.1,71.5,105.3,72.3z"/>
		</g>
	</g>
</g>
</svg>
